# xmcd CD database file
#
# Track frame offsets:
#	150
#	20593
#	37630
#	57008
#	72615
#	95300
#	112111
#	124087
#	141142
#	154998
#	169489
#	195627
#	223039
#
# Disc length: 4250 seconds
#
# Revision: 1
# Processed by: cddbd v1.5.2PL0 Copyright (c) Steve Scherf et al.
# Submitted via: CDex 1.51
#
DISCID=bc10980d
DTITLE=Michael Hoppe - Tapestry
DYEAR=2010
DGENRE=New Age
TTITLE0=Prarie Moon with Prague Symphony
TTITLE1=Sanctuary with Alyssa Park
TTITLE2=Maxie's Theme from "Nous Deux Encore" with Mitsuki Dazai
TTITLE3=Moonflower
TTITLE4=Ave Maria with Alyssa Park
TTITLE5=In Paradisum with AnDee Sanchez
TTITLE6=Impromptu
TTITLE7=Tears and Roses with Alyssa Park
TTITLE8=Daydream
TTITLE9=Embers with Joe Powers
TTITLE10=Pastoral
TTITLE11=Grace
TTITLE12=CD Video Short Film "Nous Deux Encore"
EXTD=YEAR: 2010
EXTT0=
EXTT1=
EXTT2=
EXTT3=
EXTT4=
EXTT5=
EXTT6=
EXTT7=
EXTT8=
EXTT9=
EXTT10=
EXTT11=
EXTT12=
PLAYORDER=
